<svg id="sprite" xmlns="http://www.w3.org/2000/svg" width="100%" height="100%" xmlns:xlink="http://www.w3.org/1999/xlink">
	<symbol id="checkmark-circle" viewBox="0 0 32 32">
		<path d="M16,0C7.2,0,0,7.2,0,16c0,8.8,7.2,16,16,16c8.8,0,16-7.2,16-16C32,7.2,24.8,0,16,0z M24.1,12.1l-9.8,10.1
			c-0.2,0.3-0.6,0.3-0.9,0L13.2,22l0,0L13,21.8l-0.9-1c0,0,0,0,0,0l-4.2-4.4c-0.2-0.3-0.2-0.7,0-0.9l1.3-1.4c0.2-0.3,0.6-0.3,0.9,0
			l3.8,4l8-8.3c0.2-0.3,0.6-0.3,0.9,0l1.3,1.4C24.3,11.4,24.3,11.8,24.1,12.1z"/>
	</symbol>
	<symbol id="icn-arrow" viewBox="0 0 32 32">
		<path d="M24.5,14L11.5,0.8C11,0.3,10.3,0,9.5,0c-0.8,0-1.5,0.3-2,0.8c-1.1,1.1-1.1,2.9,0,3.9l11,11.2l-11,11.2
	c-1.1,1.1-1.1,2.9,0,3.9C8,31.7,8.7,31.9,9.1,32l0.1,0l0.2,0c0.8,0,1.5-0.3,2.1-0.8L24.5,18C25.5,16.9,25.5,15.1,24.5,14z"></path>
	</symbol>
	<symbol id="plus" viewBox="0 0 32 32">
		<path d="M32 13.8h-13.8v-13.8h-4.4v13.8h-13.8v4.4h13.8v13.8h4.4v-13.8h13.8z"></path>
	</symbol>
	<symbol id="ellipsis" viewBox="0 0 32 32">
		<path d="M28.199 12.6c-2 0-3.8 1.6-3.8 3.4s1.6 3.4 3.8 3.4c2.2 0 3.8-1.4 3.8-3.4s-1.6-3.4-3.8-3.4zM16 12.6c-2 0-3.8 1.4-3.8 3.4s1.8 3.4 3.8 3.4c2 0 3.8-1.4 3.8-3.4s-1.8-3.4-3.8-3.4zM3.8 12.6c-2.2 0-3.8 1.4-3.8 3.4s1.6 3.4 3.8 3.4c2 0 3.8-1.6 3.8-3.4s-1.8-3.4-3.8-3.4z"></path>
	</symbol>
	<symbol id="icn-close" viewBox="-629 391 20 20">
		<path d="M-612.5,406.5l-5.5-5.5l5.5-5.5c0.1-0.1,0.2-0.3,0.2-0.5s-0.1-0.4-0.2-0.5c-0.3-0.3-0.8-0.3-1.1,0l-5.5,5.5l-5.5-5.5
		c-0.3-0.3-0.8-0.3-1.1,0c-0.3,0.3-0.3,0.8,0,1.1l5.5,5.5l-5.5,5.5c-0.1,0.1-0.2,0.3-0.2,0.5c0,0.2,0.1,0.4,0.2,0.5
		c0.3,0.3,0.8,0.3,1.1,0l5.5-5.5l5.5,5.5c0.1,0.1,0.3,0.2,0.5,0.2c0.2,0,0.4-0.1,0.5-0.2C-612.2,407.2-612.2,406.8-612.5,406.5z"/>
	</symbol>

	<symbol id="icn-chevron" viewBox="0 0 20 20">
		<path d="M5 20c-0.128 0-0.256-0.049-0.354-0.146-0.195-0.195-0.195-0.512 0-0.707l8.646-8.646-8.646-8.646c-0.195-0.195-0.195-0.512 0-0.707s0.512-0.195 0.707 0l9 9c0.195 0.195 0.195 0.512 0 0.707l-9 9c-0.098 0.098-0.226 0.146-0.354 0.146z"></path>
	</symbol>

	<symbol id="icn-hamburger" viewBox="-629 391 20 20">
		<path d="M-626.5,397.2h15c0.4,0,0.8-0.3,0.8-0.8s-0.3-0.8-0.8-0.8h-15c-0.4,0-0.8,0.3-0.8,0.8S-626.9,397.2-626.5,397.2z
			 M-611.5,400.8h-15c-0.4,0-0.8,0.3-0.8,0.8s0.3,0.8,0.8,0.8h15c0.4,0,0.8-0.3,0.8-0.8S-611.1,400.8-611.5,400.8z M-611.5,405.8h-15
			c-0.4,0-0.8,0.3-0.8,0.8s0.3,0.8,0.8,0.8h15c0.4,0,0.8-0.3,0.8-0.8S-611.1,405.8-611.5,405.8z"/>
	</symbol>

	<symbol id="icn-search" viewBox="-629 391 20 20">
		<path d="M-610,409.5l-4.7-5.3c1.3-1.4,2-3.3,2-5.2c0-2.1-0.8-4-2.3-5.5c-1.5-1.5-3.4-2.3-5.5-2.3c-2.1,0-4,0.8-5.5,2.3
	c-1.5,1.5-2.3,3.4-2.3,5.5c0,2.1,0.8,4,2.3,5.5c1.5,1.5,3.4,2.3,5.5,2.3c1.7,0,3.3-0.5,4.7-1.6l4.7,5.3c0.1,0.2,0.3,0.2,0.6,0.2
	c0.2,0,0.4-0.1,0.5-0.2c0.1-0.1,0.2-0.3,0.2-0.5C-609.8,409.8-609.8,409.6-610,409.5z M-620.5,392.8c3.4,0,6.2,2.8,6.2,6.2
	s-2.8,6.2-6.2,6.2s-6.2-2.8-6.2-6.2S-623.9,392.8-620.5,392.8z"/>
	</symbol>

	<symbol id="icn-youtube" viewBox="0 0 18.66 12.871">
		<path d="M18.339,2.017c-0.01-0.071-0.025-0.141-0.044-0.209c-0.008-0.032-0.018-0.064-0.029-0.096
		c-0.238-0.706-0.904-1.215-1.691-1.216h0.123c0,0-3.161-0.477-7.367-0.497C5.124,0.02,1.962,0.497,1.962,0.497h0.123
		c-0.787,0-1.453,0.51-1.691,1.216c-0.01,0.031-0.02,0.064-0.029,0.096C0.346,1.876,0.332,1.945,0.321,2.017
		C0.207,2.836,0.017,4.473,0,6.435c0.017,1.962,0.207,3.598,0.321,4.419c0.01,0.071,0.025,0.141,0.044,0.208
		c0.009,0.033,0.019,0.064,0.029,0.096c0.238,0.706,0.904,1.216,1.691,1.216H1.962c0,0,3.162,0.477,7.367,0.497
		c4.206-0.02,7.367-0.497,7.367-0.497h-0.123c0.786,0,1.453-0.509,1.691-1.216c0.011-0.032,0.02-0.063,0.029-0.096
		c0.019-0.068,0.034-0.137,0.044-0.208c0.114-0.821,0.304-2.457,0.321-4.419C18.643,4.473,18.453,2.836,18.339,2.017z M12.093,6.834
		L8.326,9.571C8.247,9.629,8.153,9.658,8.059,9.658c-0.07,0-0.141-0.017-0.206-0.049C7.702,9.531,7.606,9.375,7.606,9.204V3.732
		c0-0.171,0.096-0.327,0.247-0.405C8.005,3.25,8.188,3.265,8.326,3.365L12.093,6.1c0.118,0.086,0.187,0.222,0.187,0.367
		C12.28,6.613,12.211,6.749,12.093,6.834z"/>
	</symbol>

	<symbol id="icn-twitter" viewBox="0 0 20 17.555">
		<path style="fill:#FFFFFF;" d="M20.031,2.077c-0.742,0.359-1.531,0.591-2.368,0.698c0.852-0.549,1.506-1.413,1.816-2.448
				c-0.797,0.505-1.68,0.866-2.619,1.078C16.112,0.539,15.038,0,13.858,0c-2.273,0-4.116,1.982-4.116,4.432
				c0,0.344,0.036,0.684,0.104,1.005C6.432,5.261,3.394,3.489,1.363,0.814C1.01,1.466,0.808,2.226,0.808,3.041
				c0,1.534,0.725,2.898,1.832,3.682C1.964,6.695,1.329,6.507,0.775,6.172c0,0.018,0,0.041,0,0.061c0,2.143,1.419,3.931,3.301,4.345
				c-0.345,0.1-0.71,0.146-1.087,0.146c-0.264,0-0.516-0.018-0.77-0.079c0.522,1.767,2.043,3.05,3.844,3.077
				c-1.409,1.194-3.183,1.896-5.112,1.896c-0.333,0-0.662-0.02-0.983-0.062c1.821,1.263,3.98,1.999,6.31,1.999
				c7.57,0,11.712-6.755,11.712-12.61c0-0.187-0.004-0.377-0.014-0.567C18.78,3.745,19.48,2.963,20.031,2.077z"/>
	</symbol>

	<symbol id="icn-instagram" viewBox="0 0 18.718 18.718">
		<path d="M15.101,0H3.618C1.623,0,0,1.622,0,3.617v3.821v7.663c0,1.995,1.623,3.617,3.618,3.617h11.483
  		c1.995,0,3.618-1.622,3.618-3.617V7.438V3.617C18.718,1.622,17.095,0,15.101,0z M16.139,2.158l0.414-0.002v0.412v2.761l-3.163,0.01
  		l-0.011-3.173L16.139,2.158z M6.688,7.438c0.599-0.83,1.571-1.374,2.671-1.374s2.072,0.544,2.671,1.374
  		c0.391,0.542,0.624,1.204,0.624,1.921c0,1.816-1.479,3.294-3.295,3.294s-3.294-1.478-3.294-3.294
  		C6.065,8.642,6.298,7.98,6.688,7.438z M16.894,15.101c0,0.989-0.804,1.793-1.794,1.793H3.618c-0.99,0-1.794-0.804-1.794-1.793
  		V7.438h2.794C4.376,8.032,4.241,8.68,4.241,9.359c0,2.822,2.296,5.119,5.118,5.119c2.822,0,5.118-2.297,5.118-5.119
  		c0-0.679-0.136-1.327-0.377-1.921h2.794V15.101z"/>
	</symbol>

	<symbol id="icn-linkedin" viewBox="0 0 19.036 17.479">
		<path d="M4.191,17.479H0.48V5.605h3.711V17.479z M2.24,4.119H2.213C0.871,4.119,0,3.212,0,2.062
		C0,0.889,0.897,0,2.266,0c1.368,0,2.211,0.887,2.237,2.059C4.504,3.209,3.635,4.119,2.24,4.119z M19.036,17.479h-4.207v-6.145
		c0-1.608-0.657-2.706-2.105-2.706c-1.107,0-1.722,0.74-2.009,1.455c-0.107,0.256-0.091,0.613-0.091,0.971v6.425H6.455
		c0,0,0.054-10.885,0-11.874h4.168v1.864c0.246-0.815,1.578-1.978,3.704-1.978c2.636,0,4.708,1.708,4.708,5.386V17.479z"/>
	</symbol>

	<symbol id="icn-facebook" viewBox="0 0 9.285 19.98">
		<path d="M9.285,6.47H6.123V4.396c0-0.779,0.516-0.961,0.879-0.961c0.363,0,2.231,0,2.231,0V0.012L6.16,0
  		C2.749,0,1.973,2.553,1.973,4.188V6.47H0v3.528h1.973c0,4.528,0,9.983,0,9.983h4.15c0,0,0-5.509,0-9.983h2.799L9.285,6.47z"/>
	</symbol>

	<symbol id="logo-big" viewBox="0 0 338.24 324.79">
		<polygon points="0 48.4 48.4 0 338.24 0 338.24 276.3 289.74 324.79 0.19 324.79 0 48.4" style="fill:#00467f"/><polygon points="51.57 248.93 52.89 248.93 52.89 240.05 56.06 240.05 56.06 238.74 48.4 238.74 48.4 240.05 51.57 240.05 51.57 248.93" style="fill:#fff"/><path d="M58.36,242.08c-1.66,0-2.82,1.38-2.82,3.41,0,1.85,1,3.57,2.93,3.57a3.66,3.66,0,0,0,2.4-.79V247a3.59,3.59,0,0,1-2.11.8,2,2,0,0,1-2-2H61C61,243.29,60,242.08,58.36,242.08Zm-1.6,2.81a1.64,1.64,0,0,1,1.63-1.66,1.48,1.48,0,0,1,1.41,1.66h-3Z" style="fill:#fff"/><polygon points="72.53 238.74 71.28 238.74 68.74 245.76 66.22 238.74 64.9 238.74 68.61 249.01 68.87 249.01 71.91 240.68 74.91 249.01 75.17 249.01 78.89 238.74 77.59 238.74 75.09 245.76 72.53 238.74" style="fill:#fff"/><path d="M85.52,248.92v-4.11c0-1.84-.87-2.74-2.05-2.74a2.27,2.27,0,0,0-1.8,1h0v-4.36h-1.2v10.19h1.2v-4.81a1.94,1.94,0,0,1,1.51-1c0.72,0,1.18.64,1.18,1.63v4.16h1.19Z" style="fill:#fff"/><path d="M89.46,245.29c-1,.39-2.05.79-2.05,2.12a1.54,1.54,0,0,0,1.48,1.64,2.46,2.46,0,0,0,1.63-.69,0.81,0.81,0,0,0,.91.69,1.79,1.79,0,0,0,1.15-.52v-0.81a1.34,1.34,0,0,1-.63.36c-0.15,0-.23-0.09-0.23-0.34v-3.45a2,2,0,0,0-2.19-2.22,2.36,2.36,0,0,0-2,.91v1.45a2.42,2.42,0,0,1,1.91-1.11,1,1,0,0,1,1.09,1.18v0.36Zm1.06,2.27a1.48,1.48,0,0,1-1,.55,0.87,0.87,0,0,1-.86-0.94c0-.79.88-1.18,1.91-1.57v2Z" style="fill:#fff"/><path d="M94.44,242.22v6.71h1.19v-3.51c0-1.15.65-2.06,1.46-2.06a1.92,1.92,0,0,1,1.12.65l0.63-1.15a2,2,0,0,0-1.44-.78c-0.56,0-1.14.5-1.75,1.68h0v-1.54H94.44Z" style="fill:#fff"/><path d="M102.65,242.08c-1.67,0-2.82,1.38-2.82,3.41,0,1.85,1,3.57,2.93,3.57a3.66,3.66,0,0,0,2.4-.79V247a3.6,3.6,0,0,1-2.11.8,2,2,0,0,1-2-2h4.25C105.27,243.29,104.25,242.08,102.65,242.08Zm-1.6,2.81a1.63,1.63,0,0,1,1.62-1.66,1.47,1.47,0,0,1,1.41,1.66h-3Z" style="fill:#fff"/><polygon points="116.83 238.74 115.58 238.74 113.04 245.76 110.52 238.74 109.2 238.74 112.91 249.01 113.16 249.01 116.2 240.68 119.21 249.01 119.46 249.01 123.19 238.74 121.88 238.74 119.38 245.76 116.83 238.74" style="fill:#fff"/><path d="M125.52,245.29c-1,.39-2.06.79-2.06,2.12a1.54,1.54,0,0,0,1.48,1.64,2.44,2.44,0,0,0,1.63-.69,0.81,0.81,0,0,0,.92.69,1.81,1.81,0,0,0,1.16-.52v-0.81a1.35,1.35,0,0,1-.63.36c-0.15,0-.23-0.09-0.23-0.34v-3.45a2,2,0,0,0-2.19-2.22,2.34,2.34,0,0,0-2,.91v1.45a2.4,2.4,0,0,1,1.91-1.11,1,1,0,0,1,1.09,1.18v0.36Zm1.06,2.27a1.48,1.48,0,0,1-1,.55,0.87,0.87,0,0,1-.86-0.94c0-.79.89-1.18,1.91-1.57v2Z" style="fill:#fff"/><path d="M135.46,248.92v-4.14c0-1.84-.91-2.7-2.06-2.7a2.27,2.27,0,0,0-1.8,1h0v-0.88h-1.2v6.71h1.2v-4.81a1.94,1.94,0,0,1,1.5-1c0.73,0,1.18.64,1.18,1.63v4.16h1.2Z" style="fill:#fff"/><path d="M139.41,245.29c-1,.39-2.06.79-2.06,2.12a1.55,1.55,0,0,0,1.48,1.64,2.46,2.46,0,0,0,1.63-.69,0.81,0.81,0,0,0,.91.69,1.8,1.8,0,0,0,1.16-.52v-0.81a1.37,1.37,0,0,1-.63.36c-0.15,0-.23-0.09-0.23-0.34v-3.45a2,2,0,0,0-2.19-2.22,2.35,2.35,0,0,0-2,.91v1.45a2.42,2.42,0,0,1,1.91-1.11,1,1,0,0,1,1.09,1.18v0.36Zm1.06,2.27a1.46,1.46,0,0,1-1,.55,0.87,0.87,0,0,1-.86-0.94c0-.79.89-1.18,1.91-1.57v2Z" style="fill:#fff"/><path d="M149.35,248.92v-4.14c0-1.84-.92-2.7-2.06-2.7a2.27,2.27,0,0,0-1.8,1h0v-0.88h-1.2v6.71h1.2v-4.81a2,2,0,0,1,1.51-1c0.73,0,1.18.64,1.18,1.63v4.16h1.2Z" style="fill:#fff"/><path d="M156.55,242.22h-2.48c-1.63,0-2.64.88-2.64,2.31a2.37,2.37,0,0,0,.32,1.26,2.33,2.33,0,0,0,1,.85v0a1.1,1.1,0,0,0-1,1,1.08,1.08,0,0,0,.61.85,1.76,1.76,0,0,0-1.52,1.85c0,1.18,1.16,2,2.78,2,1.79,0,2.85-.81,2.85-2.13a1.86,1.86,0,0,0-1.75-1.86c-1.21-.27-1.84-0.49-1.84-0.86,0-.79,1.64-0.32,2.44-1.27a2.56,2.56,0,0,0,.57-1.51,2,2,0,0,0-.63-1.47h1.24v-1Zm-3.16,7c0.74,0,2,.22,2,1.07,0,0.61-.62,1-1.67,1s-1.68-.36-1.68-1A1.18,1.18,0,0,1,153.39,249.26Zm0.33-3.45a1.15,1.15,0,0,1-1.21-1.23,1.21,1.21,0,0,1,1.2-1.21,1.19,1.19,0,0,1,1.17,1.18A1.16,1.16,0,0,1,153.71,245.8Z" style="fill:#fff"/><path d="M159.75,245.29c-1,.39-2.06.79-2.06,2.12a1.55,1.55,0,0,0,1.48,1.64,2.46,2.46,0,0,0,1.62-.69,0.81,0.81,0,0,0,.92.69,1.8,1.8,0,0,0,1.16-.52v-0.81a1.37,1.37,0,0,1-.63.36c-0.15,0-.23-0.09-0.23-0.34v-3.45a2,2,0,0,0-2.19-2.22,2.35,2.35,0,0,0-2,.91v1.45a2.41,2.41,0,0,1,1.91-1.11,1,1,0,0,1,1.09,1.18v0.36Zm1.06,2.27a1.46,1.46,0,0,1-1,.55,0.87,0.87,0,0,1-.86-0.94c0-.79.89-1.18,1.91-1.57v2Z" style="fill:#fff"/><path d="M171.91,249.06a3.5,3.5,0,1,0-3.18-3.55A3.25,3.25,0,0,0,171.91,249.06Zm0-5.78a2.08,2.08,0,0,1,2.06,2.24,2.06,2.06,0,0,1-2.06,2.34c-1.16,0-1.95-.94-1.95-2.36A2,2,0,0,1,171.9,243.28Z" style="fill:#fff"/><polygon points="183.86 248.93 183.86 240.05 187.04 240.05 187.04 238.74 179.38 238.74 179.38 240.05 182.55 240.05 182.55 248.93 183.86 248.93" style="fill:#fff"/><path d="M188.7,245.29c-1,.39-2.06.79-2.06,2.12a1.55,1.55,0,0,0,1.48,1.64,2.46,2.46,0,0,0,1.63-.69,0.81,0.81,0,0,0,.91.69,1.79,1.79,0,0,0,1.15-.52v-0.81a1.38,1.38,0,0,1-.63.36c-0.15,0-.23-0.09-0.23-0.34v-3.45a2,2,0,0,0-2.19-2.22,2.35,2.35,0,0,0-2,.91v1.45a2.42,2.42,0,0,1,1.91-1.11,1,1,0,0,1,1.09,1.18v0.36Zm1.06,2.27a1.46,1.46,0,0,1-1,.55,0.87,0.87,0,0,1-.86-0.94c0-.79.89-1.18,1.91-1.57v2Z" style="fill:#fff"/><path d="M202.77,248.92v-4.21c0-1.58-.78-2.63-2-2.63a2.64,2.64,0,0,0-2,1.21,2,2,0,0,0-1.8-1.21,2.48,2.48,0,0,0-1.76,1v-0.88H194v6.71h1.2v-4.87a1.74,1.74,0,0,1,1.51-.85c0.59,0,1.09.46,1.09,1.56v4.17H199v-4.87a2.13,2.13,0,0,1,1.34-.85,1.35,1.35,0,0,1,1.26,1.57v4.16h1.19Z" style="fill:#fff"/><path d="M207.14,245.29c-1,.39-2.05.79-2.05,2.12a1.54,1.54,0,0,0,1.48,1.64,2.47,2.47,0,0,0,1.63-.69,0.8,0.8,0,0,0,.91.69,1.8,1.8,0,0,0,1.16-.52v-0.81a1.38,1.38,0,0,1-.63.36c-0.15,0-.22-0.09-0.22-0.34v-3.45a2,2,0,0,0-2.19-2.22,2.35,2.35,0,0,0-2,.91v1.45a2.41,2.41,0,0,1,1.91-1.11,1,1,0,0,1,1.09,1.18v0.36Zm1.07,2.27a1.48,1.48,0,0,1-1.05.55,0.86,0.86,0,0,1-.85-0.94c0-.79.89-1.18,1.91-1.57v2Z" style="fill:#fff"/><polygon points="216.4 242.22 213.73 245.5 216.75 248.93 218.37 248.93 215.25 245.5 217.83 242.22 216.4 242.22" style="fill:#fff"/><rect x="212.48" y="238.73" width="1.2" height="10.19" style="fill:#fff"/><ellipse cx="220.73" cy="240.18" rx="0.71" ry="0.79" style="fill:#fff"/><rect x="220.13" y="242.22" width="1.2" height="6.71" style="fill:#fff"/><polygon points="237.81 248.93 237.81 238.74 236.59 238.74 233.53 242.92 230.49 238.74 229.26 238.74 229.26 248.93 230.57 248.93 230.57 241 230.6 241 233.42 244.94 233.65 244.94 236.46 241 236.48 241 236.48 248.93 237.81 248.93" style="fill:#fff"/><path d="M242.34,245.29c-1,.39-2.06.79-2.06,2.12a1.55,1.55,0,0,0,1.48,1.64,2.44,2.44,0,0,0,1.62-.69,0.81,0.81,0,0,0,.91.69,1.78,1.78,0,0,0,1.16-.52v-0.81a1.38,1.38,0,0,1-.63.36c-0.15,0-.23-0.09-0.23-0.34v-3.45a2,2,0,0,0-2.19-2.22,2.35,2.35,0,0,0-2,.91v1.45a2.41,2.41,0,0,1,1.91-1.11,1,1,0,0,1,1.09,1.18v0.36Zm1.06,2.27a1.46,1.46,0,0,1-1,.55,0.87,0.87,0,0,1-.86-0.94c0-.79.89-1.18,1.91-1.57v2Z" style="fill:#fff"/><polygon points="251.61 242.22 248.94 245.5 251.96 248.93 253.57 248.93 250.46 245.5 253.03 242.22 251.61 242.22" style="fill:#fff"/><rect x="247.68" y="238.73" width="1.2" height="10.19" style="fill:#fff"/><path d="M254.93,243v1.45a2.41,2.41,0,0,1,1.91-1.11,1,1,0,0,1,1.09,1.18v0.36l-1.06.42c-1,.39-2.06.79-2.06,2.12a1.55,1.55,0,0,0,1.48,1.64,2.45,2.45,0,0,0,1.63-.69,0.81,0.81,0,0,0,.91.69,1.8,1.8,0,0,0,1.16-.52v-0.81a1.36,1.36,0,0,1-.63.36c-0.15,0-.23-0.09-0.23-0.34v-3.45a2,2,0,0,0-2.19-2.22A2.35,2.35,0,0,0,254.93,243Zm3,4.57a1.48,1.48,0,0,1-1,.55,0.87,0.87,0,0,1-.86-0.94c0-.79.89-1.18,1.91-1.57v2Z" style="fill:#fff"/><path d="M267.24,248.92v-6.71H266V247a1.76,1.76,0,0,1-1.44.94,1.23,1.23,0,0,1-1.23-1.48v-4.26h-1.2v4.17c0,1.7.86,2.67,2.08,2.67a2.52,2.52,0,0,0,1.79-1v0.85h1.2Z" style="fill:#fff"/><path d="M270.19,242.22v6.71h1.2v-3.51c0-1.15.64-2.06,1.47-2.06A1.93,1.93,0,0,1,274,244l0.63-1.15a2,2,0,0,0-1.44-.78c-0.56,0-1.14.5-1.75,1.68h0v-1.54h-1.2Z" style="fill:#fff"/><path d="M278.17,245.29c-1,.39-2.06.79-2.06,2.12a1.55,1.55,0,0,0,1.48,1.64,2.44,2.44,0,0,0,1.62-.69,0.81,0.81,0,0,0,.92.69,1.8,1.8,0,0,0,1.15-.52v-0.81a1.37,1.37,0,0,1-.63.36c-0.15,0-.23-0.09-0.23-0.34v-3.45a2,2,0,0,0-2.19-2.22,2.35,2.35,0,0,0-2,.91v1.45a2.4,2.4,0,0,1,1.91-1.11,1,1,0,0,1,1.08,1.18v0.36Zm1.06,2.27a1.48,1.48,0,0,1-1,.55,0.87,0.87,0,0,1-.86-0.94c0-.79.89-1.18,1.91-1.57v2Z" style="fill:#fff"/><path d="M288.54,248.92v-6.71h-1.2V247a1.76,1.76,0,0,1-1.43.94,1.23,1.23,0,0,1-1.24-1.48v-4.26h-1.2v4.17c0,1.7.86,2.67,2.08,2.67a2.52,2.52,0,0,0,1.79-1v0.85h1.2Z" style="fill:#fff"/><rect x="123.68" y="240.54" width="3.45" height="0.68" style="fill:#fff"/><rect x="186.97" y="240.54" width="3.46" height="0.68" style="fill:#fff"/><polygon points="94.35 190.16 87.35 190.16 87.35 185.26 93.9 185.26 93.9 182.33 87.35 182.33 87.35 177.6 94.13 177.6 94.13 174.67 84.42 174.67 84.42 193.09 94.35 193.09 94.35 190.16" style="fill:#fff"/><polygon points="179.07 177.6 179.07 174.67 169.36 174.67 169.36 193.09 179.28 193.09 179.28 190.16 172.28 190.16 172.28 185.26 178.84 185.26 178.84 182.33 172.28 182.33 172.28 177.6 179.07 177.6" style="fill:#fff"/><polygon points="68.08 185.34 76.45 185.34 76.45 193.09 79.39 193.09 79.39 174.67 76.45 174.67 76.45 182.42 68.08 182.42 68.08 174.67 65.14 174.67 65.14 193.09 68.08 193.09 68.08 185.34" style="fill:#fff"/><path d="M112.11,193.33a7.3,7.3,0,0,0,5.57-2.08,7.82,7.82,0,0,0,1.85-5.46V174.67H116.6v10.67c0,1.88-.27,2.95-0.92,3.68a4.54,4.54,0,0,1-3.52,1.33,4.13,4.13,0,0,1-3.22-1.4c-0.67-.76-0.88-1.56-0.88-3.44V174.67h-2.93V186a7.24,7.24,0,0,0,2.17,5.54A7.1,7.1,0,0,0,112.11,193.33Z" style="fill:#fff"/><path d="M139.21,193.09V174.67h-2.8v13.17L126,174.67h-2.3v18.42h2.79V180l10.24,13.09h2.44Z" style="fill:#fff"/><path d="M165.69,174.67h-3l-4.58,11.92-4.59-11.92h-3l7.17,18.57h0.91Z" style="fill:#fff"/><path d="M194.31,193.09h3.52l-0.48-.74c-1-1.48-1.37-2.1-2-3.25s-1.13-2.07-1.71-2.92a9.16,9.16,0,0,0-1.55-1.79,4.82,4.82,0,0,0,2.41-4.42,5.15,5.15,0,0,0-1.52-3.87,5.75,5.75,0,0,0-4.06-1.42h-4.36v18.42h2.94v-7.72h0.65c1,0,1.88.28,4,3.91Zm-2.83-13.15a2.48,2.48,0,0,1-.62,1.79,3,3,0,0,1-2.21.72h-1.16v-5h1.16c1.91,0,2.81.75,2.83,2.38v0.07Z" style="fill:#fff"/><path d="M205.14,177.6a4.89,4.89,0,0,1,3.52,1.75l0.42,0.44,0.13,0.13v-3.85l0,0-0.09-.08a6.35,6.35,0,0,0-3.76-1.31,5.23,5.23,0,0,0-3.75,1.38,5,5,0,0,0-1.42,3.69c0,2.55,1.77,4,3.6,5.19l0.44,0.3L205,185.8a8.71,8.71,0,0,1,1.07.87,2.76,2.76,0,0,1,1,2,2.08,2.08,0,0,1-2.3,1.93,5,5,0,0,1-4-2.45l-0.44-.63-0.14-.2,0.09,4.46,0,0a6.94,6.94,0,0,0,4.68,1.72,4.65,4.65,0,0,0,3.45-1.47,5.37,5.37,0,0,0,1.36-3.67c0-3-1.87-4.48-3.61-5.62L205,182a10.3,10.3,0,0,1-1.07-.78,2.33,2.33,0,0,1-1-1.82A2,2,0,0,1,205.14,177.6Z" style="fill:#fff"/><path d="M242.91,193.1h2.93v-9.61l6.24-8.81h-3.55l-4.17,5.9-4.13-5.89h-3.55l6.24,8.79v9.64Z" style="fill:#fff"/><rect x="144.02" y="174.67" width="2.93" height="18.42" style="fill:#fff"/><rect x="214.92" y="174.67" width="2.94" height="18.42" style="fill:#fff"/><polygon points="54.32 193.09 57.26 193.09 57.26 177.6 62.79 177.6 62.79 174.67 48.78 174.67 48.78 177.6 54.32 177.6 54.32 193.09" style="fill:#fff"/><polygon points="227.12 193.09 230.04 193.09 230.04 177.6 235.58 177.6 235.58 174.67 221.57 174.67 221.57 177.6 227.12 177.6 227.12 193.09" style="fill:#fff"/><polygon points="281.9 184.7 288.06 184.7 288.06 181.81 281.9 181.81 281.9 177.56 288.06 177.56 288.06 174.67 279 174.67 279 192.87 281.9 192.87 281.9 184.7" style="fill:#fff"/><path d="M266.69,193.34a8.44,8.44,0,0,0,6.52-2.84,10.19,10.19,0,0,0,0-13,8.79,8.79,0,0,0-12.84,0,10.14,10.14,0,0,0,0,13A8.39,8.39,0,0,0,266.69,193.34Zm-4.12-13.92a5.58,5.58,0,0,1,4.16-1.8c3.39,0,5.85,2.69,5.85,6.39a6.7,6.7,0,0,1-1.67,4.58,5.72,5.72,0,0,1-8.35,0A7.14,7.14,0,0,1,262.58,179.42Z" style="fill:#fff"/><path d="M210.68,200.38h-3.49l-12.1,31.45h5.15l3.42-8.9H214.5l3.61,8.9h5.15ZM205.58,218c0.12-.32,3.1-8.34,3.31-8.92,0.24,0.57,3.46,8.59,3.57,8.92h-6.88Z" style="fill:#fff"/><polygon points="190.74 226.85 178.45 226.85 178.45 200.56 173.47 200.56 173.47 231.82 190.74 231.82 190.74 226.85" style="fill:#fff"/><path d="M57.24,222.92H68.07l3.63,8.9h5.14L64.27,200.38h-3.5l-12.1,31.45h5.15S57.19,223.08,57.24,222.92ZM62.48,209L66,218H59.17C59.28,217.64,62.27,209.62,62.48,209Z" style="fill:#fff"/><path d="M136.2,229.34v-6.09l-0.21.14-0.65.46a16,16,0,0,1-9.16,3.31,10.15,10.15,0,0,1-7.56-3,11.11,11.11,0,0,1-2.89-7.9,11.39,11.39,0,0,1,2.94-7.9,10,10,0,0,1,7.35-3.12,16.25,16.25,0,0,1,9.08,3.05l0.63,0.41,0.21,0.13-0.24-6.09-0.08,0c-3.81-1.78-6.67-2.54-9.55-2.54-8.94,0-15.43,6.93-15.43,16.48a16.88,16.88,0,0,0,3.62,10.24,14.27,14.27,0,0,0,11.57,5.35,19,19,0,0,0,10.32-2.86Z" style="fill:#fff"/><path d="M153.31,215.37l12.26-14.81H159.3l-10.63,12.86V200.56h-5v31.26h5V217.73l13.05,14.09h6.83Z" style="fill:#fff"/><path d="M286.06,205.63a14.16,14.16,0,0,0-11.4-5.07h-11.1v31.26h11.14a14.25,14.25,0,0,0,11-4.82,16.51,16.51,0,0,0,4-10.81A16.87,16.87,0,0,0,286.06,205.63Zm-11.85,21.22h-5.68V205.52H274a10.34,10.34,0,0,1,8,3.15,11,11,0,0,1,2.56,7.52C284.55,220.15,282.37,226.85,274.21,226.85Z" style="fill:#fff"/><path d="M92.21,232.23c4.09,0,7.27-1.19,9.46-3.53s3.15-5.4,3.15-9.27V200.56h-5v18.11c0,3.19-.46,5-1.58,6.24a7.72,7.72,0,0,1-6,2.25,7,7,0,0,1-5.46-2.38c-1.14-1.28-1.5-2.64-1.5-5.85V200.56h-5v19.32c0,3.95,1.27,7.19,3.68,9.39A12.07,12.07,0,0,0,92.21,232.23Z" style="fill:#fff"/><path d="M250.66,222.92l-17.61-22.36h-3.91v31.26h4.73V209.61l17.38,22.22h4.14V200.56h-4.75v22.36Z" style="fill:#fff"/><polygon points="58.73 272.28 51.15 263.38 48.99 263.38 48.99 276.13 51.4 276.13 51.4 267.09 59.02 276.13 61.14 276.13 61.14 263.38 58.73 263.38 58.73 272.28" style="fill:#fff"/><polygon points="76.5 270.58 82.03 270.58 82.03 268.66 76.5 268.66 76.5 265.31 82.28 265.31 82.28 263.38 74.04 263.38 74.04 276.13 82.41 276.13 82.41 274.21 76.5 274.21 76.5 270.58" style="fill:#fff"/><polygon points="107.98 271.28 104.62 263.38 102.54 263.38 99.2 271.25 96.02 263.38 93.47 263.38 98.73 276.3 99.53 276.3 103.57 266.84 107.59 276.3 108.42 276.3 113.67 263.38 111.15 263.38 107.98 271.28" style="fill:#fff"/><polygon points="151.02 263.38 139.8 263.38 139.8 265.31 146.78 265.31 139.35 276.13 151.06 276.13 151.06 274.21 143.59 274.21 151.02 263.38" style="fill:#fff"/><polygon points="165.49 270.58 171.02 270.58 171.02 268.66 165.49 268.66 165.49 265.31 171.27 265.31 171.27 263.38 163.03 263.38 163.03 276.13 171.4 276.13 171.4 274.21 165.49 274.21 165.49 270.58" style="fill:#fff"/><path d="M187.74,263.38l-5.26,12.75h2.58l1.23-3.1H192l1.32,3.1h2.6l-5.63-12.75h-2.52ZM187,271.16l2-5,2.15,5H187Z" style="fill:#fff"/><polygon points="209.95 263.38 207.49 263.38 207.49 276.13 216.14 276.13 216.14 274.21 209.95 274.21 209.95 263.38" style="fill:#fff"/><path d="M231.87,263.38l-5.26,12.75h2.58l1.23-3.1h5.67l1.32,3.1H240l-5.63-12.75h-2.52Zm-0.69,7.78,2-5,2.15,5h-4.12Z" style="fill:#fff"/><polygon points="261.36 272.28 253.78 263.38 251.62 263.38 251.62 276.13 254.03 276.13 254.03 267.09 261.65 276.13 263.77 276.13 263.77 263.38 261.36 263.38 261.36 272.28" style="fill:#fff"/><path d="M285.55,264.19a7.53,7.53,0,0,0-3.54-.81h-5.34v12.75h5.19a8,8,0,0,0,3.64-.79A5.8,5.8,0,0,0,288,273.1a6.35,6.35,0,0,0,.86-3.32,6.44,6.44,0,0,0-.86-3.31A5.89,5.89,0,0,0,285.55,264.19ZM285,273a4.45,4.45,0,0,1-3.28,1.23h-2.62v-8.9h2.54a4.64,4.64,0,0,1,3.36,1.2A4.85,4.85,0,0,1,285,273Z" style="fill:#fff"/><rect x="48.86" y="256.91" width="240.53" height="1.4" style="fill:#fff"/><path d="M120.68,48.47V97.52c0,11.54,8.62,45.09,48,61.56l0.64,0.27,0.64-.27c39.35-16.47,48-50,48-61.56V48.47H120.68Z" style="fill:#fff"/><path d="M131.13,81h0l-0.3-.16a14.57,14.57,0,0,0-7.38-2,4,4,0,0,0-.48,0h-0.15V97.52c0,0.4,1.27,40.49,46.5,59.52,45.21-19,46.48-59.12,46.48-59.52V78.86h-0.62a14.59,14.59,0,0,0-7.39,2,15.83,15.83,0,0,1-15.76,0,14.82,14.82,0,0,0-14.82,0l-0.13.07a15.82,15.82,0,0,1-15.64-.05l-0.08-.06a14.85,14.85,0,0,0-14.73,0l-0.21.13h0A15.8,15.8,0,0,1,131.13,81Z" style="fill:#00467f"/><path d="M136.37,57.2a6.65,6.65,0,0,1,5-2.27c7.21-.22,10.88,5.18,10.71,9.5-0.18,4.93-3.92,6.08-4.42,6.22a4.91,4.91,0,0,0,.77,2.51,0.41,0.41,0,0,1,.06.51,3.43,3.43,0,0,1-.21.38,0.49,0.49,0,0,0,0,.39,1.62,1.62,0,0,1-.27,1.14,5.42,5.42,0,0,0,.13,2.07c0,0.14-.08.15-0.17,0a3.26,3.26,0,0,1-.93-1.73,4.68,4.68,0,0,0-2.23,2.27c0,0.11-.22.22-0.25,0a2.86,2.86,0,0,1,1.21-2.56,2.58,2.58,0,0,0-1.95.39s-0.25.13-.09-0.1c0-.05.44-1,2.31-1.23a8.79,8.79,0,0,0,.58-1.16,6.61,6.61,0,0,0-.86-2.4,4.92,4.92,0,0,0-2.35.84,0.42,0.42,0,0,0-.18.35v0.4a0.7,0.7,0,0,1-.55.58s-1.62.54-2.38,0.9a3.49,3.49,0,0,0-1.21,1,2.64,2.64,0,0,1-1.08.92,1.62,1.62,0,0,0-.67.4,4.32,4.32,0,0,1-.62.57,3.4,3.4,0,0,0-.92,1.22c-0.05.09-.14,0.2-0.15,0s0-.59,0-0.6a3.17,3.17,0,0,1,.86-1.55,0.67,0.67,0,0,1-.23-0.08,10.32,10.32,0,0,0-3.47.44c-0.08,0-.17,0-0.08-0.09,0.2-.27.6-1.32,3-1.38a2.43,2.43,0,0,0-1.66-.78c-0.18,0-.07-0.1,0-0.13a2.6,2.6,0,0,1,2.48.31,5.89,5.89,0,0,1,1.4-.39,22.68,22.68,0,0,1,2.42-2,1.85,1.85,0,0,1,0-.64h-0.06a5.54,5.54,0,0,1-.76-3.17,6.27,6.27,0,0,1-3.7-2.4,5.52,5.52,0,0,1-4.11-3.12c-3.69,2.65-6.08,7.37-6.22,7.58a0.14,0.14,0,0,1-.2,0,3.49,3.49,0,0,1-.35-2.2,30.23,30.23,0,0,1,4.26-7c-0.7-4,3-5.35,4.43-5.3a3.67,3.67,0,0,1,2.72,1.3h0Z" style="fill:#00467f"/><path d="M143.58,57.79s-0.09,0,0-.07a2.13,2.13,0,0,1,1.32-.57,4.36,4.36,0,0,0-3.53.07l0-.07a3.61,3.61,0,0,1,1-1,4.31,4.31,0,0,0-3,1.07V57.09a2.92,2.92,0,0,1,.78-1c-2.26.07-4,2.93-4,2.93a2.51,2.51,0,0,0-2.36-2c-1.43-.22-4.65,1.75-3.42,4.41-0.57,1.06-2.46,2.71-4.07,6.05,0,0.07,0,0,0,.12,1.45-2.07,3.55-4.72,5.69-6,0.22,0.17,1.45,3.37,4.28,3.55,0.32,0.23,1.73,2.6,4.25,2.37a10.93,10.93,0,0,0,.46,3.28L141,70.85c0-.07,0,0,0,0a9.55,9.55,0,0,1,2.8-1.64,9.54,9.54,0,0,1,.85-2,4.68,4.68,0,0,0,3.78-4.37C148.52,60.27,146.19,57.45,143.58,57.79Zm-12.1,3.09a0.6,0.6,0,1,1,.6-0.6A0.6,0.6,0,0,1,131.47,60.88Z" style="fill:#fff"/><path d="M166.83,57.2a6.65,6.65,0,0,1,5-2.27c7.21-.22,10.88,5.18,10.71,9.5-0.18,4.93-3.91,6.08-4.42,6.22a5,5,0,0,0,.77,2.51,0.41,0.41,0,0,1,.06.51,3.2,3.2,0,0,1-.21.38,0.47,0.47,0,0,0,0,.39,1.62,1.62,0,0,1-.27,1.14,5.44,5.44,0,0,0,.12,2.07c0,0.14-.08.15-0.17,0a3.23,3.23,0,0,1-.93-1.73,4.64,4.64,0,0,0-2.23,2.27c0,0.11-.22.22-0.25,0a2.86,2.86,0,0,1,1.22-2.56,2.59,2.59,0,0,0-1.95.39s-0.25.13-.09-0.1c0-.05.44-1,2.31-1.23a9.31,9.31,0,0,0,.58-1.16,6.54,6.54,0,0,0-.85-2.4,4.92,4.92,0,0,0-2.35.84,0.43,0.43,0,0,0-.18.35v0.4a0.69,0.69,0,0,1-.55.58s-1.62.54-2.37,0.9a3.44,3.44,0,0,0-1.22,1,2.63,2.63,0,0,1-1.08.92,1.61,1.61,0,0,0-.67.4,4.18,4.18,0,0,1-.62.57,3.44,3.44,0,0,0-.92,1.22c0,0.09-.14.2-0.14,0s0-.59,0-0.6a3.2,3.2,0,0,1,.86-1.55,0.67,0.67,0,0,1-.24-0.08,10.35,10.35,0,0,0-3.47.44c-0.08,0-.16,0-0.08-0.09,0.2-.27.61-1.32,3-1.38a2.42,2.42,0,0,0-1.66-.78c-0.17,0-.08-0.1,0-0.13a2.59,2.59,0,0,1,2.47.31,6,6,0,0,1,1.4-.39,23.63,23.63,0,0,1,2.42-2,2,2,0,0,1,0-.64h-0.07a5.61,5.61,0,0,1-.76-3.17,6.26,6.26,0,0,1-3.7-2.4,5.52,5.52,0,0,1-4.12-3.12c-3.69,2.65-6.09,7.37-6.22,7.58a0.13,0.13,0,0,1-.2,0,3.56,3.56,0,0,1-.35-2.2,30.2,30.2,0,0,1,4.27-7c-0.7-4,3-5.35,4.44-5.3a3.68,3.68,0,0,1,2.72,1.3h0Z" style="fill:#00467f"/><path d="M174,57.79s-0.08,0,0-.07a2.17,2.17,0,0,1,1.32-.57,4.36,4.36,0,0,0-3.53.07l0-.07a3.6,3.6,0,0,1,1-1,4.28,4.28,0,0,0-3,1.07V57.09a3,3,0,0,1,.77-1c-2.25.07-4,2.93-4,2.93a2.51,2.51,0,0,0-2.36-2c-1.43-.22-4.65,1.75-3.41,4.41-0.57,1.06-2.46,2.71-4.06,6.05a1.07,1.07,0,0,0,0,.12c1.44-2.07,3.55-4.72,5.68-6,0.22,0.17,1.45,3.37,4.29,3.55,0.32,0.23,1.73,2.6,4.24,2.37a10.88,10.88,0,0,0,.46,3.28l0.11,0.14c0-.07,0,0,0,0a9.54,9.54,0,0,1,2.8-1.64,9.66,9.66,0,0,1,.85-2,4.69,4.69,0,0,0,3.79-4.37C179,60.27,176.64,57.45,174,57.79Zm-12.1,3.09a0.6,0.6,0,1,1,.6-0.6A0.6,0.6,0,0,1,161.94,60.88Z" style="fill:#fff"/><path d="M197.1,57.2a6.67,6.67,0,0,1,5-2.27c7.22-.22,10.88,5.18,10.72,9.5-0.18,4.93-3.92,6.08-4.43,6.22a5,5,0,0,0,.77,2.51,0.4,0.4,0,0,1,.06.51,3.16,3.16,0,0,1-.21.38,0.51,0.51,0,0,0,0,.39,1.6,1.6,0,0,1-.27,1.14,5.55,5.55,0,0,0,.12,2.07c0,0.14-.08.15-0.17,0a3.22,3.22,0,0,1-.93-1.73,4.65,4.65,0,0,0-2.23,2.27c0,0.11-.22.22-0.25,0a2.85,2.85,0,0,1,1.21-2.56,2.6,2.6,0,0,0-2,.39s-0.24.13-.09-0.1c0-.05.44-1,2.32-1.23a8.87,8.87,0,0,0,.57-1.16,6.39,6.39,0,0,0-.85-2.4,4.92,4.92,0,0,0-2.35.84,0.43,0.43,0,0,0-.18.35v0.4a0.68,0.68,0,0,1-.55.58s-1.63.54-2.38,0.9a3.48,3.48,0,0,0-1.21,1,2.7,2.7,0,0,1-1.08.92,1.6,1.6,0,0,0-.67.4,4.25,4.25,0,0,1-.62.57,3.41,3.41,0,0,0-.93,1.22c0,0.09-.14.2-0.14,0a5.76,5.76,0,0,1,0-.6,3.1,3.1,0,0,1,.86-1.55,0.66,0.66,0,0,1-.24-0.08,10.34,10.34,0,0,0-3.47.44c-0.08,0-.16,0-0.08-0.09,0.2-.27.61-1.32,3-1.38a2.42,2.42,0,0,0-1.66-.78c-0.17,0-.07-0.1,0-0.13a2.59,2.59,0,0,1,2.47.31,6.07,6.07,0,0,1,1.4-.39,22.65,22.65,0,0,1,2.42-2,2,2,0,0,1,0-.64H201a5.58,5.58,0,0,1-.76-3.17,6.25,6.25,0,0,1-3.7-2.4,5.54,5.54,0,0,1-4.12-3.12c-3.68,2.65-6.08,7.37-6.21,7.58a0.14,0.14,0,0,1-.21,0,3.57,3.57,0,0,1-.35-2.2,30.13,30.13,0,0,1,4.27-7c-0.7-4,3-5.35,4.43-5.3a3.65,3.65,0,0,1,2.71,1.3h0Z" style="fill:#00467f"/><path d="M204.31,57.79s-0.09,0,0-.07a2.15,2.15,0,0,1,1.32-.57,4.36,4.36,0,0,0-3.53.07l0-.07a3.62,3.62,0,0,1,1-1,4.29,4.29,0,0,0-3,1.07V57.09a2.8,2.8,0,0,1,.77-1c-2.26.07-4,2.93-4,2.93a2.51,2.51,0,0,0-2.36-2c-1.44-.22-4.65,1.75-3.41,4.41-0.57,1.06-2.46,2.71-4.07,6.05,0,0.07,0,0,0,.12,1.45-2.07,3.55-4.72,5.68-6,0.21,0.17,1.45,3.37,4.28,3.55,0.32,0.23,1.74,2.6,4.25,2.37a10.74,10.74,0,0,0,.46,3.28l0.1,0.14c0-.07,0,0,0,0a9.55,9.55,0,0,1,2.8-1.64,9.42,9.42,0,0,1,.85-2,4.68,4.68,0,0,0,3.78-4.37C209.25,60.27,206.92,57.45,204.31,57.79Zm-12.1,3.09a0.6,0.6,0,1,1,.6-0.6A0.6,0.6,0,0,1,192.21,60.88Z" style="fill:#fff"/><path d="M173.12,127.45l-0.7.47,0.74,0.39a1.47,1.47,0,0,1-.7,2.77h-6.33a1.47,1.47,0,0,1-.7-2.77l0.74-.39-0.69-.47a8.89,8.89,0,0,0-5-1.54,9.13,9.13,0,0,0-5,1.54,9.64,9.64,0,0,1-6,1.53,12.54,12.54,0,0,1-8.66-3.16l-0.14-.12h-1.59l-0.15.18a1.19,1.19,0,0,1-.92.42,1.08,1.08,0,1,1,0-2.16,1.18,1.18,0,0,1,.92.43l0.15,0.18H141v-2.31h-1.89l-0.15.18a1.19,1.19,0,0,1-.92.42,1.08,1.08,0,1,1,0-2.16,1.19,1.19,0,0,1,.92.43l0.15,0.18H141v-2.31h-1.89l-0.15.18a1.19,1.19,0,0,1-.92.42,1.08,1.08,0,1,1,0-2.16,1.18,1.18,0,0,1,.92.43l0.15,0.18H141v-2.31h-1.88l-0.15.18a1.2,1.2,0,0,1-.92.42,1.08,1.08,0,1,1,0-2.16,1.18,1.18,0,0,1,.92.43l0.15,0.18H141v-2.31h-1.87l-0.15.18a1.19,1.19,0,0,1-.92.42,1.08,1.08,0,1,1,0-2.16,1.2,1.2,0,0,1,.93.43l0.15,0.18H141v-2.31h-1.86l-0.15.18a1.2,1.2,0,0,1-.92.42,1.08,1.08,0,1,1,0-2.16,1.19,1.19,0,0,1,.93.43l0.15,0.18H141v-2.31h-1.86l-0.15.18a1.2,1.2,0,0,1-.92.42,1.08,1.08,0,1,1,0-2.16,1.19,1.19,0,0,1,.93.42l0.15,0.18h1.48l1.58-.8v20.92l0.23,0.42c4.34,2.73,8.7,3,12.61.8,4.12-2.33,9.92-2.45,13.32,2.51h-1.62a0.5,0.5,0,0,0,0,1h5.09a0.5,0.5,0,0,0,0-1h-1.63c3.46-5,9.27-4.56,13.34-2.5,3.6,1.82,7.82,1.56,12.55-.78l0.28-.45V104.39l1.58,0.8h1.47l0.15-.18a1.2,1.2,0,0,1,.93-0.43,1.08,1.08,0,1,1,0,2.16,1.21,1.21,0,0,1-.93-0.42l-0.15-.18h-1.86v2.31h1.86l0.15-.18a1.2,1.2,0,0,1,.93-0.43,1.08,1.08,0,1,1,0,2.16,1.21,1.21,0,0,1-.93-0.42l-0.15-.18h-1.86v2.31h1.87l0.15-.18a1.18,1.18,0,0,1,.92-0.42,1.08,1.08,0,1,1,0,2.16,1.2,1.2,0,0,1-.92-0.42l-0.15-.18h-1.87V115h1.87l0.15-.18a1.19,1.19,0,0,1,.92-0.43,1.08,1.08,0,1,1,0,2.16,1.2,1.2,0,0,1-.92-0.42l-0.15-.18h-1.88v2.31h1.88l0.15-.18a1.19,1.19,0,0,1,.93-0.43,1.08,1.08,0,1,1,0,2.16,1.19,1.19,0,0,1-.92-0.42l-0.15-.18h-1.88v2.31h1.89l0.15-.18a1.17,1.17,0,0,1,.92-0.43,1.08,1.08,0,1,1,0,2.16,1.19,1.19,0,0,1-.92-0.42l-0.15-.18h-1.89v2.31h1.9l0.15-.18a1.18,1.18,0,0,1,.92-0.43,1.08,1.08,0,1,1,0,2.16,1.22,1.22,0,0,1-.92-0.42l-0.15-.17h-1.58l-0.14.12A12.55,12.55,0,0,1,189.1,129a9.66,9.66,0,0,1-6-1.53A8.9,8.9,0,0,0,173.12,127.45Z" style="fill:#fff"/><path d="M144.53,124.59c3.22,1.71,5.87,2.17,10.61-.3a11.77,11.77,0,0,1,13.65,2.05v1.57c-3.8-4.92-9.87-4.73-14.24-2.26-3.5,2-7.42,1.76-11.35-.63V103.89l1.06-.53v21.09Z" style="fill:#fff"/><path d="M145.27,123.84v-21l0.13-.07a14.68,14.68,0,0,0,10-1c4.43-1.87,8.93-1.28,13.38,1.77V125a13.12,13.12,0,0,0-8.3-3,12.52,12.52,0,0,0-5.81,1.45C150.44,125.61,148.13,125.31,145.27,123.84Z" style="fill:#fff"/><path d="M183.45,124.29c4.74,2.46,7.39,2,10.61.3l0.27-.14V103.35l1.06,0.53V125c-4.31,2.07-8.14,2.28-11.37.65-4.29-2.17-10.37-2.71-14.22,2.27v-1.57A11.75,11.75,0,0,1,183.45,124.29Z" style="fill:#fff"/><path d="M169.8,125V103.57c4.45-3.05,8.95-3.65,13.38-1.77a14.67,14.67,0,0,0,10,1l0.13,0.07v21c-2.86,1.47-5.17,1.77-9.41-.44A12.71,12.71,0,0,0,169.8,125Z" style="fill:#fff"/><polygon points="193.55 99 187.88 94.72 182.21 99 184.38 92.16 178.41 87.86 185.69 87.86 187.88 80.98 190.07 87.86 197.35 87.86 191.38 92.16 193.55 99" style="fill:#fff"/><polygon points="156.36 99.06 150.69 94.78 145.02 99.06 147.19 92.22 141.22 87.92 148.5 87.92 150.69 81.04 152.88 87.92 160.16 87.92 154.19 92.22 156.36 99.06" style="fill:#fff"/><polygon points="163.63 152.72 165.8 145.89 159.82 141.58 167.1 141.58 169.29 134.7 171.49 141.58 178.76 141.58 172.79 145.89 174.96 152.72 169.29 148.44 163.63 152.72" style="fill:#fff"/>
	</symbol>

	<symbol id="logo-small" viewBox="0 0 338.24 324.79">

		<polygon points="0 48.4 48.4 0 338.24 0 338.24 276.3 289.74 324.79 0.19 324.79 0 48.4" style="fill:#00467f"/><polygon points="94.35 190.16 87.35 190.16 87.35 185.26 93.9 185.26 93.9 182.33 87.35 182.33 87.35 177.6 94.13 177.6 94.13 174.67 84.42 174.67 84.42 193.09 94.35 193.09 94.35 190.16" style="fill:#fff"/><polygon points="179.07 177.6 179.07 174.67 169.36 174.67 169.36 193.09 179.28 193.09 179.28 190.16 172.28 190.16 172.28 185.26 178.84 185.26 178.84 182.33 172.28 182.33 172.28 177.6 179.07 177.6" style="fill:#fff"/><polygon points="68.08 185.34 76.45 185.34 76.45 193.09 79.39 193.09 79.39 174.67 76.45 174.67 76.45 182.42 68.08 182.42 68.08 174.67 65.14 174.67 65.14 193.09 68.08 193.09 68.08 185.34" style="fill:#fff"/><path d="M111.94,193.33a7.3,7.3,0,0,0,5.57-2.08,7.82,7.82,0,0,0,1.85-5.46V174.67h-2.94v10.67c0,1.88-.27,2.95-0.92,3.68a4.54,4.54,0,0,1-3.52,1.33,4.13,4.13,0,0,1-3.22-1.4c-0.67-.76-0.88-1.56-0.88-3.44V174.67H105V186a7.24,7.24,0,0,0,2.17,5.54A7.1,7.1,0,0,0,111.94,193.33Z" transform="translate(0.16)" style="fill:#fff"/><path d="M139,193.09V174.67h-2.8v13.17l-10.37-13.17h-2.3v18.42h2.79V180l10.24,13.09H139Z" transform="translate(0.16)" style="fill:#fff"/><path d="M165.53,174.67h-3L158,186.59l-4.59-11.92h-3l7.17,18.57h0.91Z" transform="translate(0.16)" style="fill:#fff"/><path d="M194.15,193.09h3.52l-0.48-.74c-1-1.48-1.37-2.1-2-3.25s-1.13-2.07-1.71-2.92a9.16,9.16,0,0,0-1.55-1.79,4.82,4.82,0,0,0,2.41-4.42,5.15,5.15,0,0,0-1.52-3.87,5.75,5.75,0,0,0-4.06-1.42h-4.36v18.42h2.94v-7.72H188c1,0,1.88.28,4,3.91Zm-2.83-13.15a2.48,2.48,0,0,1-.62,1.79,3,3,0,0,1-2.21.72h-1.16v-5h1.16c1.91,0,2.81.75,2.83,2.38v0.07Z" transform="translate(0.16)" style="fill:#fff"/><path d="M205,177.6a4.89,4.89,0,0,1,3.52,1.75l0.42,0.44,0.13,0.13v-3.85l0,0-0.09-.08a6.35,6.35,0,0,0-3.76-1.31,5.23,5.23,0,0,0-3.75,1.38,5,5,0,0,0-1.42,3.69c0,2.55,1.77,4,3.6,5.19l0.44,0.3,0.82,0.56a8.71,8.71,0,0,1,1.07.87,2.76,2.76,0,0,1,1,2,2.08,2.08,0,0,1-2.3,1.93,5,5,0,0,1-4-2.45l-0.44-.63-0.14-.2,0.09,4.46,0,0a6.94,6.94,0,0,0,4.68,1.72,4.65,4.65,0,0,0,3.45-1.47,5.37,5.37,0,0,0,1.36-3.67c0-3-1.86-4.48-3.61-5.62l-1.27-.8a10.3,10.3,0,0,1-1.07-.78,2.33,2.33,0,0,1-1-1.82A2,2,0,0,1,205,177.6Z" transform="translate(0.16)" style="fill:#fff"/><path d="M242.75,193.1h2.93v-9.61l6.24-8.81h-3.55l-4.17,5.9-4.13-5.89h-3.55l6.24,8.79v9.64Z" transform="translate(0.16)" style="fill:#fff"/><rect x="144.02" y="174.67" width="2.93" height="18.42" style="fill:#fff"/><rect x="214.92" y="174.67" width="2.94" height="18.42" style="fill:#fff"/><polygon points="54.32 193.09 57.26 193.09 57.26 177.6 62.79 177.6 62.79 174.67 48.78 174.67 48.78 177.6 54.32 177.6 54.32 193.09" style="fill:#fff"/><polygon points="227.12 193.09 230.04 193.09 230.04 177.6 235.58 177.6 235.58 174.67 221.57 174.67 221.57 177.6 227.12 177.6 227.12 193.09" style="fill:#fff"/><polygon points="281.9 184.7 288.06 184.7 288.06 181.81 281.9 181.81 281.9 177.56 288.06 177.56 288.06 174.67 279 174.67 279 192.87 281.9 192.87 281.9 184.7" style="fill:#fff"/><path d="M266.53,193.34a8.44,8.44,0,0,0,6.52-2.84,10.19,10.19,0,0,0,0-13,8.79,8.79,0,0,0-12.84,0,10.14,10.14,0,0,0,0,13A8.39,8.39,0,0,0,266.53,193.34Zm-4.12-13.92a5.58,5.58,0,0,1,4.16-1.8c3.39,0,5.85,2.69,5.85,6.39a6.7,6.7,0,0,1-1.67,4.58,5.72,5.72,0,0,1-8.35,0A7.14,7.14,0,0,1,262.41,179.42Z" transform="translate(0.16)" style="fill:#fff"/><path d="M210.52,205.9H207l-12.1,31.45h5.15l3.42-8.9h10.84l3.61,8.9h5.15Zm-5.1,17.59c0.12-.32,3.1-8.34,3.31-8.92,0.24,0.57,3.46,8.59,3.57,8.92h-6.88Z" transform="translate(0.16)" style="fill:#fff"/><polygon points="190.74 232.38 178.45 232.38 178.45 206.08 173.47 206.08 173.47 237.35 190.74 237.35 190.74 232.38" style="fill:#fff"/><path d="M57.08,228.45H67.91l3.63,8.9h5.14L64.1,205.9h-3.5l-12.1,31.45h5.15S57,228.6,57.08,228.45Zm5.24-13.88,3.56,8.92H59C59.12,223.16,62.1,215.14,62.32,214.57Z" transform="translate(0.16)" style="fill:#fff"/><path d="M136,234.86v-6.09l-0.21.14-0.65.46a16,16,0,0,1-9.16,3.31,10.15,10.15,0,0,1-7.56-3,11.11,11.11,0,0,1-2.89-7.9,11.39,11.39,0,0,1,2.94-7.9,10,10,0,0,1,7.35-3.12,16.25,16.25,0,0,1,9.08,3.05l0.63,0.41,0.21,0.13-0.24-6.09-0.08,0c-3.81-1.78-6.67-2.54-9.55-2.54-8.94,0-15.43,6.93-15.43,16.48a16.88,16.88,0,0,0,3.62,10.24,14.27,14.27,0,0,0,11.57,5.35A19,19,0,0,0,136,234.89Z" transform="translate(0.16)" style="fill:#fff"/><path d="M153.15,220.89l12.26-14.81h-6.27l-10.63,12.86V206.08h-5v31.26h5V223.26l13.05,14.09h6.83Z" transform="translate(0.16)" style="fill:#fff"/><path d="M285.89,211.15a14.16,14.16,0,0,0-11.4-5.07h-11.1v31.26h11.14a14.25,14.25,0,0,0,11-4.82,16.51,16.51,0,0,0,4-10.81A16.87,16.87,0,0,0,285.89,211.15ZM274,232.38h-5.68V211h5.48a10.34,10.34,0,0,1,8,3.15,11,11,0,0,1,2.56,7.52C284.39,225.67,282.2,232.38,274,232.38Z" transform="translate(0.16)" style="fill:#fff"/><path d="M92,237.75c4.09,0,7.27-1.19,9.46-3.53s3.15-5.4,3.15-9.27V206.09h-5V224.2c0,3.19-.46,5-1.58,6.24a7.72,7.72,0,0,1-6,2.25,7,7,0,0,1-5.46-2.38c-1.14-1.28-1.5-2.64-1.5-5.85V206.09h-5V225.4c0,3.95,1.27,7.19,3.68,9.39A12.07,12.07,0,0,0,92,237.75Z" transform="translate(0.16)" style="fill:#fff"/><path d="M250.49,228.45l-17.61-22.36H229v31.26h4.73V215.13l17.38,22.22h4.14V206.09h-4.75v22.36Z" transform="translate(0.16)" style="fill:#fff"/><polygon points="58.73 272.28 51.15 263.38 48.99 263.38 48.99 276.13 51.4 276.13 51.4 267.09 59.02 276.13 61.14 276.13 61.14 263.38 58.73 263.38 58.73 272.28" style="fill:#fff"/><polygon points="76.5 270.58 82.03 270.58 82.03 268.66 76.5 268.66 76.5 265.31 82.28 265.31 82.28 263.38 74.04 263.38 74.04 276.13 82.41 276.13 82.41 274.21 76.5 274.21 76.5 270.58" style="fill:#fff"/><polygon points="107.98 271.28 104.62 263.38 102.54 263.38 99.2 271.25 96.02 263.38 93.47 263.38 98.73 276.3 99.53 276.3 103.57 266.84 107.59 276.3 108.42 276.3 113.67 263.38 111.15 263.38 107.98 271.28" style="fill:#fff"/><polygon points="151.02 263.38 139.8 263.38 139.8 265.31 146.78 265.31 139.35 276.13 151.06 276.13 151.06 274.21 143.59 274.21 151.02 263.38" style="fill:#fff"/><polygon points="165.49 270.58 171.02 270.58 171.02 268.66 165.49 268.66 165.49 265.31 171.27 265.31 171.27 263.38 163.03 263.38 163.03 276.13 171.4 276.13 171.4 274.21 165.49 274.21 165.49 270.58" style="fill:#fff"/><path d="M187.58,263.38l-5.26,12.75h2.58l1.23-3.1h5.67l1.32,3.1h2.6l-5.63-12.75h-2.52Zm-0.69,7.78,2-5,2.15,5h-4.12Z" transform="translate(0.16)" style="fill:#fff"/><polygon points="209.95 263.38 207.49 263.38 207.49 276.13 216.14 276.13 216.14 274.21 209.95 274.21 209.95 263.38" style="fill:#fff"/><path d="M231.71,263.38l-5.26,12.75H229l1.23-3.1h5.67l1.32,3.1h2.6l-5.63-12.75h-2.52ZM231,271.16l2-5,2.15,5H231Z" transform="translate(0.16)" style="fill:#fff"/><polygon points="261.36 272.28 253.78 263.38 251.62 263.38 251.62 276.13 254.03 276.13 254.03 267.09 261.65 276.13 263.77 276.13 263.77 263.38 261.36 263.38 261.36 272.28" style="fill:#fff"/><path d="M285.38,264.19a7.53,7.53,0,0,0-3.54-.81H276.5v12.75h5.19a8,8,0,0,0,3.64-.79,5.8,5.8,0,0,0,2.45-2.24,6.35,6.35,0,0,0,.86-3.32,6.44,6.44,0,0,0-.86-3.31A5.89,5.89,0,0,0,285.38,264.19ZM284.87,273a4.45,4.45,0,0,1-3.28,1.23H279v-8.9h2.54a4.64,4.64,0,0,1,3.36,1.2A4.85,4.85,0,0,1,284.87,273Z" transform="translate(0.16)" style="fill:#fff"/><rect x="48.86" y="249.86" width="240.53" height="1.4" style="fill:#fff"/><path d="M120.51,48.47V97.52c0,11.54,8.62,45.09,48,61.56l0.64,0.27,0.64-.27c39.35-16.47,48-50,48-61.56V48.47H120.51Z" transform="translate(0.16)" style="fill:#fff"/><path d="M131,81h0l-0.3-.16a14.57,14.57,0,0,0-7.38-2,4,4,0,0,0-.48,0h-0.15V97.52c0,0.4,1.27,40.49,46.5,59.52,45.21-19,46.48-59.12,46.48-59.52V78.86H215a14.59,14.59,0,0,0-7.39,2,15.83,15.83,0,0,1-15.76,0,14.82,14.82,0,0,0-14.82,0l-0.13.07a15.82,15.82,0,0,1-15.64-.05l-0.08-.06a14.85,14.85,0,0,0-14.73,0l-0.21.13h0A15.8,15.8,0,0,1,131,81Z" transform="translate(0.16)" style="fill:#00467f"/><path d="M136.2,57.2a6.65,6.65,0,0,1,5-2.27c7.21-.22,10.88,5.18,10.71,9.5-0.18,4.93-3.92,6.08-4.42,6.22a4.91,4.91,0,0,0,.77,2.51,0.41,0.41,0,0,1,.06.51,3.43,3.43,0,0,1-.21.38,0.49,0.49,0,0,0,0,.39,1.62,1.62,0,0,1-.27,1.14,5.42,5.42,0,0,0,.13,2.07c0,0.14-.08.15-0.17,0a3.26,3.26,0,0,1-.93-1.73,4.68,4.68,0,0,0-2.23,2.27c0,0.11-.22.22-0.25,0a2.86,2.86,0,0,1,1.21-2.56,2.58,2.58,0,0,0-1.95.39s-0.25.13-.09-0.1c0-.05.44-1,2.31-1.23a8.79,8.79,0,0,0,.58-1.16,6.61,6.61,0,0,0-.86-2.4,4.92,4.92,0,0,0-2.35.84,0.42,0.42,0,0,0-.18.35v0.4a0.7,0.7,0,0,1-.55.58s-1.62.54-2.38,0.9a3.49,3.49,0,0,0-1.21,1,2.64,2.64,0,0,1-1.08.92,1.62,1.62,0,0,0-.67.4,4.32,4.32,0,0,1-.62.57,3.4,3.4,0,0,0-.92,1.22c-0.05.09-.14,0.2-0.15,0s0-.59,0-0.6a3.17,3.17,0,0,1,.86-1.55,0.67,0.67,0,0,1-.23-0.08,10.32,10.32,0,0,0-3.47.44c-0.08,0-.17,0-0.08-0.09,0.2-.27.6-1.32,3-1.38a2.43,2.43,0,0,0-1.66-.78c-0.18,0-.07-0.1,0-0.13a2.6,2.6,0,0,1,2.48.31,5.89,5.89,0,0,1,1.4-.39,22.68,22.68,0,0,1,2.42-2,1.85,1.85,0,0,1,0-.64h-0.06a5.54,5.54,0,0,1-.76-3.17,6.27,6.27,0,0,1-3.7-2.4,5.52,5.52,0,0,1-4.11-3.12c-3.69,2.65-6.08,7.37-6.22,7.58a0.14,0.14,0,0,1-.2,0,3.49,3.49,0,0,1-.35-2.2,30.23,30.23,0,0,1,4.26-7c-0.7-4,3-5.35,4.43-5.3a3.67,3.67,0,0,1,2.72,1.3h0Z" transform="translate(0.16)" style="fill:#00467f"/><path d="M143.41,57.79s-0.09,0,0-.07a2.13,2.13,0,0,1,1.32-.57,4.36,4.36,0,0,0-3.53.07l0-.07a3.61,3.61,0,0,1,1-1,4.31,4.31,0,0,0-3,1.07V57.09a2.92,2.92,0,0,1,.78-1c-2.26.07-4,2.93-4,2.93a2.51,2.51,0,0,0-2.36-2c-1.43-.22-4.65,1.75-3.42,4.41-0.57,1.06-2.46,2.71-4.07,6.05,0,0.07,0,0,0,.12,1.45-2.07,3.55-4.72,5.69-6,0.22,0.17,1.45,3.37,4.28,3.55,0.32,0.23,1.73,2.6,4.25,2.37a10.93,10.93,0,0,0,.46,3.28l0.11,0.14c0-.07,0,0,0,0a9.55,9.55,0,0,1,2.8-1.64,9.54,9.54,0,0,1,.85-2,4.68,4.68,0,0,0,3.78-4.37C148.35,60.27,146,57.45,143.41,57.79Zm-12.1,3.09a0.6,0.6,0,1,1,.6-0.6A0.6,0.6,0,0,1,131.31,60.88Z" transform="translate(0.16)" style="fill:#fff"/><path d="M166.67,57.2a6.65,6.65,0,0,1,5-2.27c7.21-.22,10.88,5.18,10.71,9.5-0.18,4.93-3.91,6.08-4.42,6.22a5,5,0,0,0,.77,2.51,0.41,0.41,0,0,1,.06.51,3.2,3.2,0,0,1-.21.38,0.47,0.47,0,0,0,0,.39,1.62,1.62,0,0,1-.27,1.14,5.44,5.44,0,0,0,.12,2.07c0,0.14-.08.15-0.17,0a3.23,3.23,0,0,1-.93-1.73A4.64,4.64,0,0,0,175,78.25c0,0.11-.22.22-0.25,0A2.86,2.86,0,0,1,176,75.67a2.59,2.59,0,0,0-1.95.39s-0.25.13-.09-0.1c0-.05.44-1,2.31-1.23a9.31,9.31,0,0,0,.58-1.16,6.54,6.54,0,0,0-.85-2.4,4.92,4.92,0,0,0-2.35.84,0.43,0.43,0,0,0-.18.35v0.4a0.69,0.69,0,0,1-.55.58s-1.62.54-2.37,0.9a3.44,3.44,0,0,0-1.22,1,2.63,2.63,0,0,1-1.08.92,1.61,1.61,0,0,0-.67.4,4.18,4.18,0,0,1-.62.57,3.44,3.44,0,0,0-.92,1.22c0,0.09-.14.2-0.14,0s0-.59,0-0.6a3.2,3.2,0,0,1,.86-1.55,0.67,0.67,0,0,1-.24-0.08,10.35,10.35,0,0,0-3.47.44c-0.08,0-.16,0-0.08-0.09,0.2-.27.61-1.32,3-1.38a2.42,2.42,0,0,0-1.66-.78c-0.17,0-.08-0.1,0-0.13a2.59,2.59,0,0,1,2.47.31,6,6,0,0,1,1.4-.39,23.63,23.63,0,0,1,2.42-2,2,2,0,0,1,0-.64h-0.07a5.61,5.61,0,0,1-.76-3.17,6.26,6.26,0,0,1-3.7-2.4A5.52,5.52,0,0,1,162,62.82c-3.69,2.65-6.09,7.37-6.22,7.58a0.13,0.13,0,0,1-.2,0,3.56,3.56,0,0,1-.35-2.2,30.2,30.2,0,0,1,4.27-7c-0.7-4,3-5.35,4.44-5.3a3.68,3.68,0,0,1,2.72,1.3h0Z" transform="translate(0.16)" style="fill:#00467f"/><path d="M173.87,57.79s-0.08,0,0-.07a2.17,2.17,0,0,1,1.32-.57,4.36,4.36,0,0,0-3.53.07l0-.07a3.6,3.6,0,0,1,1-1,4.28,4.28,0,0,0-3,1.07V57.09a3,3,0,0,1,.77-1c-2.25.07-4,2.93-4,2.93A2.51,2.51,0,0,0,164,57c-1.43-.22-4.65,1.75-3.41,4.41-0.57,1.06-2.46,2.71-4.06,6.05a1.07,1.07,0,0,0,0,.12c1.44-2.07,3.55-4.72,5.68-6,0.22,0.17,1.45,3.37,4.29,3.55,0.32,0.23,1.73,2.6,4.24,2.37a10.88,10.88,0,0,0,.46,3.28l0.11,0.14c0-.07,0,0,0,0a9.54,9.54,0,0,1,2.8-1.64,9.66,9.66,0,0,1,.85-2,4.69,4.69,0,0,0,3.79-4.37C178.81,60.27,176.48,57.45,173.87,57.79Zm-12.1,3.09a0.6,0.6,0,1,1,.6-0.6A0.6,0.6,0,0,1,161.78,60.88Z" transform="translate(0.16)" style="fill:#fff"/><path d="M196.93,57.2a6.67,6.67,0,0,1,5-2.27c7.22-.22,10.88,5.18,10.72,9.5-0.18,4.93-3.92,6.08-4.43,6.22a5,5,0,0,0,.77,2.51,0.4,0.4,0,0,1,.06.51,3.16,3.16,0,0,1-.21.38,0.51,0.51,0,0,0,0,.39,1.6,1.6,0,0,1-.27,1.14,5.55,5.55,0,0,0,.12,2.07c0,0.14-.08.15-0.17,0a3.22,3.22,0,0,1-.93-1.73,4.65,4.65,0,0,0-2.23,2.27c0,0.11-.22.22-0.25,0a2.85,2.85,0,0,1,1.21-2.56,2.6,2.6,0,0,0-2,.39s-0.24.13-.09-0.1c0-.05.44-1,2.32-1.23a8.87,8.87,0,0,0,.57-1.16,6.39,6.39,0,0,0-.85-2.4,4.92,4.92,0,0,0-2.35.84,0.43,0.43,0,0,0-.18.35v0.4a0.68,0.68,0,0,1-.55.58s-1.63.54-2.38,0.9a3.48,3.48,0,0,0-1.21,1,2.7,2.7,0,0,1-1.08.92,1.6,1.6,0,0,0-.67.4,4.25,4.25,0,0,1-.62.57,3.41,3.41,0,0,0-.93,1.22c0,0.09-.14.2-0.14,0a5.76,5.76,0,0,1,0-.6,3.1,3.1,0,0,1,.86-1.55,0.66,0.66,0,0,1-.24-0.08,10.34,10.34,0,0,0-3.47.44c-0.08,0-.16,0-0.08-0.09,0.2-.27.61-1.32,3-1.38a2.42,2.42,0,0,0-1.66-.78c-0.17,0-.07-0.1,0-0.13a2.59,2.59,0,0,1,2.47.31,6.07,6.07,0,0,1,1.4-.39,22.65,22.65,0,0,1,2.42-2,2,2,0,0,1,0-.64h-0.06a5.58,5.58,0,0,1-.76-3.17,6.25,6.25,0,0,1-3.7-2.4,5.54,5.54,0,0,1-4.12-3.12c-3.68,2.65-6.08,7.37-6.21,7.58a0.14,0.14,0,0,1-.21,0,3.57,3.57,0,0,1-.35-2.2,30.13,30.13,0,0,1,4.27-7c-0.7-4,3-5.35,4.43-5.3a3.65,3.65,0,0,1,2.71,1.3h0Z" transform="translate(0.16)" style="fill:#00467f"/><path d="M204.15,57.79s-0.09,0,0-.07a2.15,2.15,0,0,1,1.32-.57,4.36,4.36,0,0,0-3.53.07l0-.07a3.62,3.62,0,0,1,1-1,4.29,4.29,0,0,0-3,1.07V57.09a2.8,2.8,0,0,1,.77-1c-2.26.07-4,2.93-4,2.93a2.51,2.51,0,0,0-2.36-2c-1.44-.22-4.65,1.75-3.41,4.41-0.57,1.06-2.46,2.71-4.07,6.05,0,0.07,0,0,0,.12,1.45-2.07,3.55-4.72,5.68-6,0.21,0.17,1.45,3.37,4.28,3.55,0.32,0.23,1.74,2.6,4.25,2.37a10.74,10.74,0,0,0,.46,3.28l0.1,0.14c0-.07,0,0,0,0a9.55,9.55,0,0,1,2.8-1.64,9.42,9.42,0,0,1,.85-2A4.68,4.68,0,0,0,209,62.87C209.09,60.27,206.75,57.45,204.15,57.79ZM192,60.88a0.6,0.6,0,1,1,.6-0.6A0.6,0.6,0,0,1,192,60.88Z" transform="translate(0.16)" style="fill:#fff"/><path d="M173,127.45l-0.7.47,0.74,0.39a1.47,1.47,0,0,1-.7,2.77H166a1.47,1.47,0,0,1-.7-2.77l0.74-.39-0.69-.47a8.89,8.89,0,0,0-5-1.54,9.13,9.13,0,0,0-5,1.54,9.64,9.64,0,0,1-6,1.53,12.54,12.54,0,0,1-8.66-3.16l-0.14-.12h-1.59l-0.15.18a1.19,1.19,0,0,1-.92.42,1.08,1.08,0,1,1,0-2.16,1.18,1.18,0,0,1,.92.43l0.15,0.18h1.9v-2.31H139l-0.15.18a1.19,1.19,0,0,1-.92.42,1.08,1.08,0,1,1,0-2.16,1.19,1.19,0,0,1,.92.43l0.15,0.18h1.89v-2.31H139l-0.15.18a1.19,1.19,0,0,1-.92.42,1.08,1.08,0,1,1,0-2.16,1.18,1.18,0,0,1,.92.43l0.15,0.18h1.88v-2.31H139l-0.15.18a1.2,1.2,0,0,1-.92.42,1.08,1.08,0,1,1,0-2.16,1.18,1.18,0,0,1,.92.43L139,115h1.88v-2.31H139l-0.15.18a1.19,1.19,0,0,1-.92.42,1.08,1.08,0,1,1,0-2.16,1.2,1.2,0,0,1,.93.43L139,111.7h1.86v-2.31H139l-0.15.18a1.2,1.2,0,0,1-.92.42,1.08,1.08,0,1,1,0-2.16,1.19,1.19,0,0,1,.93.43l0.15,0.18h1.86v-2.31H139l-0.15.18a1.2,1.2,0,0,1-.92.42,1.08,1.08,0,1,1,0-2.16,1.19,1.19,0,0,1,.93.42l0.15,0.18h1.48l1.58-.8v20.92l0.23,0.42c4.34,2.73,8.7,3,12.61.8,4.12-2.33,9.92-2.45,13.32,2.51H166.6a0.5,0.5,0,0,0,0,1h5.09a0.5,0.5,0,0,0,0-1h-1.63c3.46-5,9.27-4.56,13.34-2.5,3.6,1.82,7.82,1.56,12.55-.78l0.28-.45V104.39l1.58,0.8h1.47l0.15-.18a1.2,1.2,0,0,1,.93-0.43,1.08,1.08,0,1,1,0,2.16,1.21,1.21,0,0,1-.93-0.42l-0.15-.18h-1.86v2.31h1.86l0.15-.18a1.2,1.2,0,0,1,.93-0.43,1.08,1.08,0,1,1,0,2.16,1.21,1.21,0,0,1-.93-0.42l-0.15-.18h-1.86v2.31h1.87l0.15-.18a1.18,1.18,0,0,1,.92-0.42,1.08,1.08,0,1,1,0,2.16,1.2,1.2,0,0,1-.92-0.42l-0.15-.18h-1.87V115h1.87l0.15-.18a1.19,1.19,0,0,1,.92-0.43,1.08,1.08,0,1,1,0,2.16,1.2,1.2,0,0,1-.92-0.42l-0.15-.18h-1.88v2.31h1.88l0.15-.18a1.19,1.19,0,0,1,.93-0.43,1.08,1.08,0,1,1,0,2.16,1.19,1.19,0,0,1-.92-0.42l-0.15-.18h-1.88v2.31h1.89l0.15-.18a1.17,1.17,0,0,1,.92-0.43,1.08,1.08,0,1,1,0,2.16,1.19,1.19,0,0,1-.92-0.42l-0.15-.18h-1.89v2.31h1.9l0.15-.18a1.18,1.18,0,0,1,.92-0.43,1.08,1.08,0,1,1,0,2.16,1.22,1.22,0,0,1-.92-0.42l-0.15-.17h-1.58l-0.14.12a12.55,12.55,0,0,1-8.66,3.16,9.66,9.66,0,0,1-6-1.53A8.9,8.9,0,0,0,173,127.45Z" transform="translate(0.16)" style="fill:#fff"/><path d="M144.37,124.59c3.22,1.71,5.87,2.17,10.61-.3a11.77,11.77,0,0,1,13.65,2.05v1.57c-3.8-4.92-9.87-4.73-14.24-2.26-3.5,2-7.42,1.76-11.35-.63V103.89l1.06-.53v21.09Z" transform="translate(0.16)" style="fill:#fff"/><path d="M145.11,123.84v-21l0.13-.07a14.68,14.68,0,0,0,10-1c4.43-1.87,8.93-1.28,13.38,1.77V125a13.12,13.12,0,0,0-8.3-3,12.52,12.52,0,0,0-5.81,1.45C150.27,125.61,148,125.31,145.11,123.84Z" transform="translate(0.16)" style="fill:#fff"/><path d="M183.29,124.29c4.74,2.46,7.39,2,10.61.3l0.27-.14V103.35l1.06,0.53V125c-4.31,2.07-8.14,2.28-11.37.65-4.29-2.17-10.37-2.71-14.22,2.27v-1.57A11.75,11.75,0,0,1,183.29,124.29Z" transform="translate(0.16)" style="fill:#fff"/><path d="M169.64,125V103.57c4.45-3.05,8.95-3.65,13.38-1.77a14.67,14.67,0,0,0,10,1l0.13,0.07v21c-2.86,1.47-5.17,1.77-9.41-.44A12.71,12.71,0,0,0,169.64,125Z" transform="translate(0.16)" style="fill:#fff"/><polygon points="193.55 99 187.88 94.72 182.21 99 184.38 92.16 178.41 87.86 185.69 87.86 187.88 80.98 190.07 87.86 197.35 87.86 191.38 92.16 193.55 99" style="fill:#fff"/><polygon points="156.36 99.06 150.69 94.78 145.02 99.06 147.19 92.22 141.22 87.92 148.5 87.92 150.69 81.04 152.88 87.92 160.16 87.92 154.19 92.22 156.36 99.06" style="fill:#fff"/><polygon points="163.63 152.72 165.8 145.89 159.82 141.58 167.1 141.58 169.29 134.7 171.49 141.58 178.76 141.58 172.79 145.89 174.96 152.72 169.29 148.44 163.63 152.72" style="fill:#fff"/>

	</symbol>

</svg>
